# xmcd
#
# Track frame offsets:
#  150
#  14250
#  28249
#  43843
#  62226
#  78538
#  92283
#  112124
#  136291
#  160380
#  178815
#  198221
#  223398
#  240028
#  265167
#  288260
#  309686
#  326649
#  342661
#
# Disc length: 4793 seconds
#
# Revision: 0
# Processed by: cddbd v1.5.2PL0 Copyright (c) Steve Scherf et al.
# Submitted via: AltoMP3_Maker 3.0
#
DISCID=1c12b713
DTITLE=Tom Russell - The Tom Russell Anthology 2: Gunpowder Sunsets
DYEAR=1900
DGENRE=
TTITLE0=Honkytonk Heart (Like Mine)
TTITLE1=Spanish Burgundy
TTITLE2=The Road to Bayamon
TTITLE3=Love Abides (w Iris DeMent)
TTITLE4=When Sinatra Played Juarez
TTITLE5=Tijuana Bible
TTITLE6=East of Woodstock, West of Vietnam (w Calexico)
TTITLE7=Nina Simone (w Calexico)
TTITLE8=Don't Look Down (w Calexico)
TTITLE9=Mesabi
TTITLE10=Sterling Hayden
TTITLE11=Guadalupe
TTITLE12=Finding You
TTITLE13=The Rose of Roscrae
TTITLE14=Hair Trigger Heart
TTITLE15=He Wasn't a Bad Kid, When He Was Sober
TTITLE16=Resurrection Mountain
TTITLE17=Iron Eyes Cody
TTITLE18=Where Do All the Cowboys Go? (w Eliza Gilkyson)
EXTD=
EXTT0=
EXTT1=
EXTT2=
EXTT3=
EXTT4=
EXTT5=
EXTT6=
EXTT7=
EXTT8=
EXTT9=
EXTT10=
EXTT11=
EXTT12=
EXTT13=
EXTT14=
EXTT15=
EXTT16=
EXTT17=
EXTT18=
PLAYORDER=
